<svg width="180" height="59" viewBox="0 0 180 59" fill="none" xmlns="http://www.w3.org/2000/svg">
<path d="M108.202 0H108.892C109.974 0.0908187 111.029 0.548379 111.778 1.33802C112.772 2.3391 113.242 3.83796 112.949 5.21757C112.738 6.3684 112.031 7.41802 111.044 8.05791C110.078 8.70127 108.85 8.93975 107.711 8.69988C106.56 8.47457 105.517 7.76673 104.881 6.79061C104.186 5.74792 103.981 4.40367 104.329 3.20292C104.675 1.96127 105.605 0.897095 106.794 0.378527C107.237 0.169159 107.725 0.0928985 108.202 0Z" fill="white"/>
<path d="M120.659 0H129.612C129.601 6.49389 129.609 12.9878 129.604 19.4817C129.608 26.5738 129.591 33.6667 129.608 40.7596C128.66 40.8088 127.709 40.7672 126.76 40.7811C124.728 40.7762 122.695 40.7901 120.663 40.7748C120.643 34.9014 120.659 29.028 120.653 23.1553C120.657 15.4371 120.642 7.71821 120.659 0Z" fill="white"/>
<path d="M137.093 0H146.051C146.042 6.23945 146.047 12.4789 146.041 18.7184C146.044 26.0671 146.029 33.4164 146.042 40.7651C145.186 40.8019 144.327 40.7714 143.47 40.7811C141.346 40.7769 139.222 40.7901 137.097 40.7741C137.082 34.9479 137.094 29.1209 137.09 23.294C137.092 15.5293 137.08 7.76465 137.093 0Z" fill="white"/>
<path d="M37.812 11.9666C40.1584 11.0723 42.795 11.0022 45.2079 11.681C47.5312 12.3437 49.6553 13.74 51.1026 15.6694C51.2089 15.8149 51.3082 15.9682 51.4403 16.0936C51.455 14.6613 51.4564 13.2283 51.4662 11.7953C54.4489 11.7988 57.4315 11.8002 60.4142 11.7946C60.4443 15.0496 60.4065 18.3052 60.4121 21.5608C60.4149 27.9618 60.3848 34.3634 60.3939 40.7644C59.1179 40.8033 57.8399 40.77 56.5632 40.7811C54.8593 40.7762 53.1547 40.7908 51.4508 40.7741C51.4368 39.4313 51.4298 38.0884 51.4417 36.7455C50.9907 37.2821 50.5419 37.8236 50.0168 38.2936C47.8347 40.2951 44.8534 41.4147 41.8812 41.3489C39.3509 41.3433 36.8451 40.4622 34.837 38.9439C32.8605 37.4638 31.351 35.4165 30.3973 33.1585C29.1779 30.2759 28.8262 27.0695 29.2115 23.9782C29.5548 21.2537 30.5105 18.5769 32.1501 16.3508C33.5701 14.402 35.5327 12.8138 37.812 11.9666ZM44.4171 13.8835C43.246 14.0395 42.1867 14.6814 41.3876 15.5265C40.4689 16.4971 39.8326 17.6979 39.3761 18.9416C38.7188 20.7074 38.4259 22.5827 38.2896 24.4531C38.1917 26.4858 38.2238 28.5344 38.5678 30.5449C38.9118 32.5138 39.5089 34.4875 40.6612 36.1479C41.3373 37.1137 42.2336 37.9629 43.3383 38.4219C44.6367 38.9758 46.1525 38.9162 47.4452 38.3754C49.1163 37.6773 50.379 36.2693 51.2397 34.7205C51.3396 34.5278 51.4879 34.3399 51.4732 34.1118C51.4704 29.0024 51.4725 23.8936 51.4697 18.7842C51.476 18.5783 51.3445 18.4064 51.2592 18.2289C50.481 16.7502 49.3589 15.4004 47.8801 14.5712C46.8405 13.9805 45.6085 13.7095 44.4171 13.8835Z" fill="white"/>
<path d="M83.9155 11.5936C86.5137 10.9613 89.3614 11.0993 91.7798 12.2924C93.8445 13.2893 95.5211 15.069 96.3399 17.2015C96.6034 17.8441 96.7573 18.5236 96.8838 19.2037C97.0432 20.1666 96.9901 21.1448 96.9992 22.1154C96.9929 28.3347 97.0027 34.5548 96.9845 40.7741C94.9772 40.7901 92.9698 40.7762 90.9625 40.7811C89.9886 40.77 89.0132 40.8033 88.0407 40.7637C88.0567 36.7899 88.0498 32.8147 88.0554 28.8401C88.0728 25.4195 88.0721 21.9989 88.0742 18.5776C88.0449 17.076 87.317 15.5654 86.0438 14.7182C84.8867 13.9168 83.359 13.7642 82.0187 14.14C80.5057 14.5331 79.1835 15.4829 78.1893 16.6628C77.63 17.336 77.1482 18.0819 76.8091 18.8868C76.7833 22.4343 76.8008 25.9846 76.7875 29.5334C76.777 33.2792 76.7679 37.0256 76.7651 40.7721C73.7838 40.7887 70.8011 40.7845 67.8199 40.7741C67.8164 31.1155 67.838 21.4575 67.8352 11.7995C70.8172 11.794 73.7992 11.803 76.7812 11.794C76.8105 13.385 76.798 14.9782 76.7896 16.5699C76.972 16.3834 77.093 16.1491 77.2517 15.9439C78.8465 13.7552 81.2852 12.2383 83.9155 11.5936Z" fill="white"/>
<path d="M155.798 12.7084C158.056 11.4265 160.757 10.9586 163.324 11.3627C165.584 11.7066 167.747 12.7181 169.419 14.271C170.019 14.8173 170.528 15.4496 171.01 16.0978C171.051 14.6662 171.041 13.2332 171.036 11.8016C174.018 11.7905 177.001 11.805 179.983 11.7946C180.018 13.8467 179.986 15.9023 179.996 17.9558C179.993 25.5617 179.986 33.1676 179.969 40.7734C177.754 40.7915 175.539 40.7762 173.325 40.7811C172.559 40.7734 171.793 40.797 171.028 40.7693C171.019 39.4278 171.028 38.0856 171.005 36.7441C169.801 38.3449 168.165 39.6178 166.314 40.4012C164.269 41.2844 161.975 41.5499 159.774 41.2185C157.762 40.9045 155.843 40.0615 154.245 38.8122C152.36 37.3515 150.918 35.368 149.992 33.1884C148.79 30.3667 148.425 27.2283 148.768 24.1945C149.055 21.6627 149.869 19.1711 151.266 17.0233C152.407 15.261 153.951 13.7379 155.798 12.7084ZM163.977 13.8856C163.143 14.0097 162.352 14.3653 161.688 14.8776C160.911 15.4752 160.295 16.2579 159.809 17.101C158.699 19.0289 158.213 21.2377 157.96 23.4243C157.806 24.7859 157.811 26.1579 157.836 27.5264C157.913 28.9552 158.066 30.3861 158.399 31.7803C158.84 33.5981 159.537 35.411 160.785 36.8405C161.588 37.7688 162.675 38.4863 163.897 38.7221C165.024 38.93 166.211 38.7609 167.247 38.277C168.951 37.479 170.215 35.9621 171.03 34.3087C171.069 33.6431 171.033 32.9734 171.046 32.3058C171.039 27.7545 171.058 23.2018 171.036 18.6511C170.774 18.0216 170.398 17.4407 170.003 16.8854C169.31 15.9404 168.443 15.1023 167.404 14.5393C166.369 13.9722 165.151 13.7136 163.977 13.8856Z" fill="white"/>
<path d="M0 11.796C3.16236 11.8175 6.32543 11.796 9.48779 11.8064C12.3845 18.4771 15.2909 25.1436 18.1911 31.8129C18.2058 31.833 18.2359 31.8746 18.2505 31.8954C18.3953 31.7678 18.4246 31.5529 18.5141 31.3872C21.3912 24.8601 24.2557 18.3274 27.1412 11.8044C27.6775 11.8044 28.2131 11.8057 28.7493 11.8023C28.6871 12.0234 28.5878 12.2321 28.492 12.4401C24.3299 21.8575 20.1663 31.2749 16.0041 40.6923C15.9656 40.8005 15.823 40.7665 15.7349 40.7818C14.7582 40.7762 13.7807 40.7922 12.804 40.7721C8.59145 31.2201 4.36914 21.6731 0.154517 12.1219C0.108372 12.0227 0.0531372 11.9278 0 11.8321V11.796Z" fill="white"/>
<path d="M104.125 11.8016C107.106 11.7905 110.088 11.805 113.07 11.7946C113.106 13.5008 113.074 15.209 113.084 16.9159C113.081 24.8684 113.074 32.8209 113.058 40.7734C111.053 40.7915 109.048 40.7762 107.044 40.7811C106.067 40.7734 105.09 40.7963 104.115 40.77C104.127 33.0261 104.127 25.283 104.13 17.5398C104.127 15.6271 104.139 13.7143 104.125 11.8016Z" fill="white"/>
<path d="M70.2373 53.968C70.2373 53.4592 70.1531 53.0061 69.9848 52.6086C69.8164 52.2111 69.5919 51.8772 69.3113 51.6069C69.0307 51.3287 68.7101 51.118 68.3493 50.9749C67.9965 50.8319 67.6357 50.7603 67.267 50.7603C66.9783 50.7603 66.7138 50.8001 66.4733 50.8796C66.2408 50.9511 66.0283 51.0505 65.8359 51.1777C65.6435 51.2969 65.4671 51.44 65.3067 51.6069C65.1544 51.7739 65.0141 51.9488 64.8858 52.1316V48.3516H63.9599V57.0563H64.8858V55.8758C65.0061 56.0507 65.1424 56.2177 65.2947 56.3767C65.4551 56.5356 65.6314 56.6748 65.8239 56.794C66.0163 56.9132 66.2327 57.0086 66.4733 57.0802C66.7138 57.1517 66.9783 57.1875 67.267 57.1875C67.6438 57.1875 68.0085 57.116 68.3613 56.9729C68.7221 56.8218 69.0387 56.6112 69.3113 56.3409C69.5919 56.0626 69.8164 55.7248 69.9848 55.3273C70.1531 54.9298 70.2373 54.4767 70.2373 53.968ZM69.2873 53.9799C69.2873 54.3535 69.2272 54.6914 69.1069 54.9934C68.9947 55.2876 68.8383 55.538 68.6379 55.7447C68.4455 55.9434 68.213 56.0984 67.9404 56.2097C67.6758 56.3131 67.3952 56.3647 67.0986 56.3647C66.81 56.3647 66.5294 56.3091 66.2568 56.1978C65.9922 56.0786 65.7517 55.9156 65.5352 55.7089C65.3268 55.5022 65.1584 55.2518 65.0302 54.9577C64.9099 54.6556 64.8498 54.3257 64.8498 53.968C64.8498 53.6102 64.9099 53.2843 65.0302 52.9902C65.1584 52.696 65.3268 52.4456 65.5352 52.2389C65.7517 52.0322 65.9922 51.8732 66.2568 51.762C66.5294 51.6427 66.81 51.5831 67.0986 51.5831C67.3952 51.5831 67.6758 51.6387 67.9404 51.75C68.205 51.8613 68.4375 52.0243 68.6379 52.2389C68.8383 52.4456 68.9947 52.696 69.1069 52.9902C69.2272 53.2843 69.2873 53.6142 69.2873 53.9799Z" fill="white"/>
<path d="M75.0243 54.3138H79.9549C79.9629 54.2581 79.9669 54.2064 79.9669 54.1587C79.9669 54.111 79.9669 54.0673 79.9669 54.0276C79.9669 53.5744 79.9028 53.1492 79.7745 52.7517C79.6463 52.3542 79.4578 52.0084 79.2093 51.7143C78.9608 51.4201 78.6561 51.1896 78.2954 51.0227C77.9346 50.8478 77.5257 50.7603 77.0687 50.7603C76.6358 50.7603 76.2349 50.8438 75.8661 51.0107C75.5054 51.1777 75.1927 51.4082 74.9281 51.7023C74.6636 51.9885 74.4551 52.3303 74.3028 52.7278C74.1585 53.1174 74.0863 53.5347 74.0863 53.9799C74.0863 54.4568 74.1665 54.8941 74.3268 55.2915C74.4952 55.689 74.7197 56.0309 75.0003 56.317C75.2809 56.5953 75.6096 56.8139 75.9864 56.9729C76.3632 57.1239 76.7641 57.1994 77.189 57.1994C77.7822 57.1994 78.2793 57.0961 78.6802 56.8894C79.081 56.6748 79.4378 56.3926 79.7505 56.0428L79.1732 55.53C78.9167 55.7924 78.6321 56.003 78.3194 56.162C78.0148 56.321 77.646 56.4005 77.213 56.4005C76.9404 56.4005 76.6799 56.3568 76.4314 56.2693C76.1828 56.1739 75.9583 56.0388 75.7579 55.8639C75.5575 55.6811 75.3931 55.4625 75.2649 55.2081C75.1366 54.9457 75.0564 54.6476 75.0243 54.3138ZM75.0243 53.6341C75.0564 53.332 75.1286 53.0538 75.2408 52.7994C75.353 52.545 75.4973 52.3264 75.6737 52.1435C75.8501 51.9527 76.0546 51.8057 76.287 51.7023C76.5195 51.591 76.7721 51.5354 77.0447 51.5354C77.3573 51.5354 77.6299 51.595 77.8624 51.7143C78.1029 51.8256 78.3034 51.9766 78.4637 52.1674C78.6321 52.3582 78.7604 52.5808 78.8485 52.8351C78.9447 53.0895 79.0049 53.3558 79.0289 53.6341H75.0243Z" fill="white"/>
<path d="M86.3622 51.6189C86.9475 51.6189 87.4004 51.762 87.7211 52.0481C88.0498 52.3264 88.2142 52.7437 88.2142 53.3002V53.5148C87.9336 53.4353 87.645 53.3717 87.3483 53.324C87.0517 53.2763 86.7029 53.2525 86.3021 53.2525C85.9092 53.2525 85.5485 53.2962 85.2198 53.3837C84.8991 53.4711 84.6185 53.5983 84.378 53.7652C84.1455 53.9322 83.9651 54.1428 83.8368 54.3972C83.7085 54.6437 83.6444 54.9298 83.6444 55.2558C83.6444 55.5817 83.7085 55.8639 83.8368 56.1024C83.9731 56.3409 84.1495 56.5436 84.3659 56.7105C84.5904 56.8695 84.839 56.9888 85.1115 57.0683C85.3921 57.1478 85.6768 57.1875 85.9654 57.1875C86.5186 57.1875 86.9755 57.0802 87.3363 56.8656C87.7051 56.6509 87.9977 56.4045 88.2142 56.1262V57.0563H89.1041V53.2883C89.1041 52.4695 88.8756 51.8534 88.4186 51.44C87.9616 51.0187 87.3082 50.808 86.4584 50.808C86.0014 50.808 85.5966 50.8557 85.2438 50.9511C84.8911 51.0385 84.5423 51.1618 84.1976 51.3208L84.4742 52.072C84.7628 51.9368 85.0554 51.8295 85.3521 51.75C85.6567 51.6626 85.9934 51.6189 86.3622 51.6189ZM86.3983 53.9322C86.7831 53.9322 87.1238 53.96 87.4205 54.0156C87.7251 54.0713 87.9937 54.1309 88.2262 54.1945V54.7907C88.2262 55.0372 88.1701 55.2637 88.0579 55.4704C87.9536 55.6692 87.8053 55.844 87.6129 55.9951C87.4285 56.1382 87.208 56.2534 86.9515 56.3409C86.7029 56.4204 86.4344 56.4601 86.1458 56.4601C85.9373 56.4601 85.7369 56.4323 85.5445 56.3767C85.3601 56.321 85.1957 56.2415 85.0514 56.1382C84.9071 56.0269 84.7908 55.8957 84.7027 55.7447C84.6225 55.5936 84.5824 55.4187 84.5824 55.22C84.5824 54.8225 84.7387 54.5085 85.0514 54.278C85.3641 54.0474 85.813 53.9322 86.3983 53.9322Z" fill="white"/>
<path d="M98.0164 54.4211C98.0164 54.7073 97.9683 54.9696 97.8721 55.2081C97.7759 55.4466 97.6436 55.6532 97.4753 55.8281C97.3149 55.9951 97.1185 56.1262 96.886 56.2216C96.6615 56.3091 96.417 56.3528 96.1524 56.3528C95.5992 56.3528 95.1743 56.1859 94.8777 55.852C94.5811 55.5181 94.4327 55.065 94.4327 54.4926V50.8915H93.5068V54.7192C93.5068 55.0849 93.5589 55.4187 93.6631 55.7208C93.7753 56.0229 93.9317 56.2852 94.1321 56.5078C94.3405 56.7225 94.5891 56.8894 94.8777 57.0086C95.1743 57.1279 95.5111 57.1875 95.8879 57.1875C96.425 57.1875 96.8619 57.0722 97.1987 56.8417C97.5354 56.6032 97.808 56.317 98.0164 55.9832V57.0563H98.9304V50.8915H98.0164V54.4211Z" fill="white"/>
<path d="M104.789 51.7023H106.762V50.8915H104.789V49.0313H103.863V50.8915H102.998V51.7023H103.863V55.4227C103.863 55.7327 103.908 55.9991 103.996 56.2216C104.084 56.4442 104.204 56.6271 104.357 56.7702C104.517 56.9053 104.705 57.0047 104.922 57.0683C105.138 57.1319 105.371 57.1637 105.619 57.1637C105.844 57.1637 106.044 57.1398 106.221 57.0921C106.405 57.0524 106.577 56.9888 106.738 56.9013V56.1143C106.577 56.1938 106.425 56.2495 106.281 56.2813C106.144 56.3131 105.996 56.329 105.836 56.329C105.523 56.329 105.271 56.2534 105.078 56.1024C104.886 55.9514 104.789 55.685 104.789 55.3035V51.7023Z" fill="white"/>
<path d="M116.566 50.8915H115.58L113.584 56.0309L111.323 50.8915H110.301L113.127 57.0325C112.943 57.4697 112.754 57.7718 112.562 57.9387C112.369 58.1057 112.133 58.1892 111.852 58.1892C111.652 58.1892 111.475 58.1693 111.323 58.1295C111.179 58.0977 111.03 58.0421 110.878 57.9626L110.565 58.69C110.774 58.7933 110.982 58.8688 111.191 58.9165C111.399 58.9722 111.632 59 111.888 59C112.353 59 112.746 58.8688 113.067 58.6065C113.396 58.3442 113.692 57.895 113.957 57.2591L116.566 50.8915Z" fill="white"/>
</svg>
