<svg width="120" height="40" viewBox="0 0 120 40" fill="none" xmlns="http://www.w3.org/2000/svg">
<path d="M72.1347 0H72.5947C73.3158 0.0610612 74.0196 0.368698 74.5184 0.899604C75.1812 1.57267 75.4944 2.58042 75.2996 3.50799C75.1588 4.28174 74.6871 4.98744 74.0294 5.41766C73.3852 5.85022 72.5668 6.01056 71.8074 5.84929C71.0402 5.6978 70.3448 5.2219 69.9206 4.5656C69.4573 3.86457 69.3207 2.96077 69.5528 2.15346C69.7831 1.31864 70.403 0.603154 71.1959 0.254499C71.4914 0.113732 71.8163 0.0624595 72.1347 0Z" fill="#9D7E6C"/>
<path d="M80.4394 0H86.408C86.4006 4.36611 86.4057 8.73221 86.4025 13.0983C86.4052 17.8667 86.3941 22.6355 86.4052 27.4043C85.7732 27.4374 85.1393 27.4095 84.5068 27.4188C83.1518 27.4155 81.7963 27.4249 80.4418 27.4146C80.4287 23.4657 80.439 19.5167 80.4352 15.5683C80.438 10.379 80.4278 5.18927 80.4394 0Z" fill="#9D7E6C"/>
<path d="M91.395 0H97.3674C97.3613 4.19504 97.3646 8.39009 97.3608 12.5851C97.3627 17.526 97.3525 22.4673 97.3613 27.4081C96.7903 27.4328 96.2179 27.4123 95.6469 27.4188C94.2309 27.416 92.8143 27.4249 91.3983 27.4141C91.388 23.4969 91.396 19.5792 91.3932 15.6615C91.3946 10.441 91.3866 5.2205 91.395 0Z" fill="#9D7E6C"/>
<path d="M25.208 8.04556C26.7723 7.44427 28.53 7.39719 30.1386 7.85352C31.6875 8.29912 33.1035 9.23788 34.0684 10.5351C34.1393 10.633 34.2054 10.736 34.2935 10.8203C34.3033 9.85735 34.3043 8.89389 34.3108 7.93042C36.2992 7.93276 38.2877 7.93369 40.2761 7.92996C40.2962 10.1184 40.271 12.3073 40.2747 14.4961C40.2766 18.7998 40.2566 23.1039 40.2626 27.4075C39.412 27.4336 38.5599 27.4113 37.7088 27.4187C36.5728 27.4155 35.4365 27.4253 34.3005 27.4141C34.2912 26.5112 34.2865 25.6083 34.2945 24.7055C33.9938 25.0662 33.6946 25.4303 33.3445 25.7463C31.8898 27.092 29.9023 27.8448 27.9208 27.8005C26.2339 27.7967 24.5634 27.2043 23.2247 26.1835C21.907 25.1884 20.9006 23.8119 20.2648 22.2938C19.4519 20.3557 19.2175 18.1999 19.4743 16.1215C19.7032 14.2896 20.3404 12.49 21.4334 10.9933C22.3801 9.68302 23.6885 8.61515 25.208 8.04556ZM29.6114 9.33437C28.8307 9.43924 28.1245 9.87087 27.5917 10.4391C26.9792 11.0916 26.5551 11.8989 26.2507 12.7351C25.8126 13.9223 25.6173 15.1832 25.5264 16.4408C25.4611 17.8074 25.4825 19.1848 25.7119 20.5365C25.9412 21.8603 26.3393 23.1873 27.1074 24.3037C27.5582 24.953 28.1557 25.524 28.8922 25.8325C29.7578 26.205 30.7683 26.1649 31.6302 25.8013C32.7442 25.3319 33.586 24.3852 34.1598 23.3439C34.2264 23.2144 34.3252 23.088 34.3154 22.9347C34.3136 19.4994 34.315 16.0646 34.3131 12.6293C34.3173 12.4909 34.2297 12.3753 34.1728 12.256C33.654 11.2618 32.9059 10.3542 31.9201 9.79675C31.227 9.39962 30.4057 9.21737 29.6114 9.33437Z" fill="#9D7E6C"/>
<path d="M55.9437 7.79495C57.6758 7.36985 59.5743 7.46261 61.1866 8.26479C62.563 8.93507 63.6808 10.1316 64.2266 11.5654C64.4023 11.9975 64.5049 12.4542 64.5892 12.9115C64.6955 13.5589 64.6601 14.2166 64.6661 14.8692C64.6619 19.0507 64.6685 23.2327 64.6564 27.4142C63.3181 27.425 61.9799 27.4156 60.6417 27.4189C59.9924 27.4114 59.3422 27.4338 58.6938 27.4072C58.7045 24.7355 58.6999 22.0628 58.7036 19.3905C58.7152 17.0907 58.7148 14.7909 58.7162 12.4906C58.6966 11.481 58.2114 10.4653 57.3626 9.89573C56.5912 9.3569 55.5727 9.25436 54.6791 9.50699C53.6705 9.77128 52.7891 10.4099 52.1262 11.2032C51.7533 11.6558 51.4322 12.1573 51.2061 12.6985C51.1889 15.0836 51.2005 17.4706 51.1917 19.8566C51.1847 22.3751 51.1786 24.8939 51.1768 27.4128C49.1892 27.424 47.2008 27.4212 45.2133 27.4142C45.2109 20.9203 45.2254 14.4268 45.2235 7.93339C47.2115 7.92966 49.1995 7.93572 51.1875 7.92966C51.2071 8.99939 51.1987 10.0705 51.1931 11.1407C51.3147 11.0153 51.3954 10.8578 51.5012 10.7198C52.5644 9.2483 54.1902 8.22844 55.9437 7.79495Z" fill="#9D7E6C"/>
<path d="M103.865 8.54435C105.371 7.68251 107.171 7.36788 108.882 7.63962C110.389 7.87082 111.831 8.55088 112.946 9.59498C113.346 9.96228 113.686 10.3874 114.007 10.8232C114.034 9.86066 114.027 8.8972 114.024 7.93467C116.012 7.92722 118 7.93701 119.988 7.93001C120.012 9.30972 119.991 10.6917 119.997 12.0724C119.995 17.1861 119.991 22.2999 119.979 27.4137C118.503 27.4258 117.026 27.4155 115.55 27.4188C115.039 27.4137 114.528 27.4295 114.018 27.4109C114.013 26.5089 114.018 25.6065 114.003 24.7046C113.201 25.7809 112.11 26.6366 110.876 27.1634C109.513 27.7572 107.983 27.9357 106.516 27.7129C105.175 27.5018 103.895 26.935 102.83 26.095C101.573 25.1129 100.612 23.7793 99.9944 22.3139C99.1931 20.4168 98.9498 18.3067 99.1787 16.267C99.3698 14.5647 99.9128 12.8895 100.844 11.4455C101.605 10.2606 102.634 9.23654 103.865 8.54435ZM109.318 9.33582C108.762 9.41925 108.234 9.65837 107.792 10.0028C107.274 10.4046 106.864 10.9309 106.539 11.4977C105.799 12.7939 105.475 14.279 105.307 15.7491C105.204 16.6646 105.207 17.587 105.224 18.5071C105.275 19.4678 105.377 20.4298 105.599 21.3672C105.894 22.5894 106.358 23.8082 107.19 24.7694C107.725 25.3935 108.45 25.8759 109.265 26.0344C110.016 26.1743 110.807 26.0605 111.498 25.7352C112.634 25.1987 113.477 24.1788 114.02 23.0671C114.046 22.6197 114.022 22.1694 114.031 21.7205C114.026 18.6605 114.038 15.5995 114.024 12.5399C113.849 12.1167 113.599 11.7261 113.335 11.3527C112.873 10.7174 112.295 10.1539 111.603 9.77537C110.913 9.39408 110.101 9.22022 109.318 9.33582Z" fill="#9D7E6C"/>
<path d="M0 7.93091C2.10824 7.94536 4.21695 7.93091 6.32519 7.9379C8.25631 12.4229 10.194 16.905 12.1274 21.3891C12.1372 21.4026 12.1572 21.4306 12.167 21.4445C12.2635 21.3588 12.2831 21.2143 12.3427 21.1029C14.2608 16.7144 16.1705 12.3222 18.0942 7.9365C18.4517 7.9365 18.8087 7.93743 19.1662 7.9351C19.1247 8.08379 19.0585 8.2241 18.9947 8.36393C16.2199 14.6956 13.4442 21.0274 10.6694 27.3591C10.6438 27.4318 10.5487 27.409 10.4899 27.4192C9.83877 27.4155 9.18714 27.4262 8.53598 27.4127C5.72763 20.9905 2.91276 14.5717 0.103012 8.14998C0.072248 8.08333 0.0354248 8.01947 0 7.95515V7.93091Z" fill="#9D7E6C"/>
<path d="M69.4168 7.93459C71.4043 7.92713 73.3918 7.93692 75.3798 7.92993C75.404 9.07704 75.3826 10.2256 75.3891 11.3731C75.3873 16.7199 75.3826 22.0668 75.3719 27.4136C74.0355 27.4257 72.6987 27.4154 71.3624 27.4187C70.7112 27.4136 70.06 27.429 69.4098 27.4112C69.4182 22.2047 69.4177 16.9987 69.42 11.7926C69.4177 10.5066 69.4261 9.22061 69.4168 7.93459Z" fill="#9D7E6C"/>
<path d="M46.8249 36.2849C46.8249 35.9428 46.7687 35.6382 46.6565 35.3709C46.5443 35.1037 46.3946 34.8792 46.2075 34.6975C46.0205 34.5104 45.8067 34.3688 45.5662 34.2726C45.331 34.1764 45.0905 34.1283 44.8446 34.1283C44.6522 34.1283 44.4758 34.155 44.3155 34.2084C44.1605 34.2565 44.0188 34.3233 43.8906 34.4089C43.7623 34.489 43.6447 34.5852 43.5378 34.6975C43.4363 34.8097 43.3427 34.9273 43.2572 35.0502V32.5088H42.6399V38.3613H43.2572V37.5676C43.3374 37.6852 43.4282 37.7975 43.5298 37.9044C43.6367 38.0113 43.7543 38.1048 43.8826 38.185C44.0108 38.2651 44.1551 38.3293 44.3155 38.3774C44.4758 38.4255 44.6522 38.4495 44.8446 38.4495C45.0958 38.4495 45.339 38.4014 45.5742 38.3052C45.8147 38.2037 46.0258 38.062 46.2075 37.8803C46.3946 37.6932 46.5443 37.4661 46.6565 37.1988C46.7687 36.9316 46.8249 36.627 46.8249 36.2849ZM46.1915 36.2929C46.1915 36.5441 46.1514 36.7713 46.0713 36.9744C45.9964 37.1721 45.8922 37.3405 45.7586 37.4794C45.6303 37.6131 45.4753 37.7173 45.2936 37.7921C45.1172 37.8616 44.9301 37.8963 44.7324 37.8963C44.54 37.8963 44.3529 37.8589 44.1712 37.7841C43.9948 37.7039 43.8345 37.5944 43.6901 37.4554C43.5512 37.3164 43.4389 37.1481 43.3534 36.9503C43.2733 36.7472 43.2332 36.5254 43.2332 36.2849C43.2332 36.0444 43.2733 35.8252 43.3534 35.6275C43.4389 35.4297 43.5512 35.2614 43.6901 35.1224C43.8345 34.9834 43.9948 34.8765 44.1712 34.8017C44.3529 34.7215 44.54 34.6814 44.7324 34.6814C44.9301 34.6814 45.1172 34.7189 45.2936 34.7937C45.47 34.8685 45.625 34.9781 45.7586 35.1224C45.8922 35.2614 45.9964 35.4297 46.0713 35.6275C46.1514 35.8252 46.1915 36.047 46.1915 36.2929Z" fill="#9D7E6C"/>
<path d="M50.0162 36.5174H53.3033C53.3086 36.48 53.3113 36.4452 53.3113 36.4132C53.3113 36.3811 53.3113 36.3517 53.3113 36.325C53.3113 36.0203 53.2685 35.7344 53.183 35.4671C53.0975 35.1999 52.9719 34.9674 52.8062 34.7696C52.6405 34.5719 52.4374 34.4169 52.1969 34.3046C51.9564 34.1871 51.6838 34.1283 51.3791 34.1283C51.0905 34.1283 50.8233 34.1844 50.5774 34.2966C50.3369 34.4089 50.1285 34.5639 49.9521 34.7616C49.7757 34.954 49.6367 35.1839 49.5352 35.4511C49.439 35.713 49.3909 35.9936 49.3909 36.2929C49.3909 36.6136 49.4443 36.9076 49.5512 37.1748C49.6635 37.442 49.8131 37.6719 50.0002 37.8643C50.1872 38.0513 50.4064 38.1983 50.6576 38.3052C50.9088 38.4068 51.176 38.4575 51.4593 38.4575C51.8548 38.4575 52.1862 38.3881 52.4534 38.2491C52.7207 38.1048 52.9585 37.915 53.167 37.6799L52.7821 37.3351C52.6111 37.5115 52.4214 37.6532 52.2129 37.7601C52.0098 37.8669 51.764 37.9204 51.4753 37.9204C51.2936 37.9204 51.1199 37.891 50.9542 37.8322C50.7885 37.7681 50.6389 37.6772 50.5053 37.5596C50.3716 37.4367 50.2621 37.2897 50.1766 37.1187C50.091 36.9423 50.0376 36.7419 50.0162 36.5174ZM50.0162 36.0604C50.0376 35.8573 50.0857 35.6702 50.1605 35.4992C50.2353 35.3282 50.3316 35.1812 50.4491 35.0583C50.5667 34.93 50.703 34.8311 50.858 34.7616C51.013 34.6868 51.1814 34.6494 51.3631 34.6494C51.5715 34.6494 51.7533 34.6895 51.9083 34.7696C52.0686 34.8445 52.2022 34.946 52.3091 35.0743C52.4214 35.2026 52.5069 35.3522 52.5657 35.5233C52.6298 35.6943 52.6699 35.8733 52.6859 36.0604H50.0162Z" fill="#9D7E6C"/>
<path d="M57.5748 34.7055C57.965 34.7055 58.2669 34.8017 58.4807 34.9941C58.6999 35.1812 58.8094 35.4618 58.8094 35.8359V35.9802C58.6224 35.9268 58.43 35.884 58.2322 35.852C58.0344 35.8199 57.8019 35.8039 57.5347 35.8039C57.2728 35.8039 57.0323 35.8333 56.8132 35.892C56.5994 35.9508 56.4123 36.0364 56.252 36.1486C56.097 36.2608 55.9767 36.4025 55.8912 36.5735C55.8057 36.7392 55.7629 36.9316 55.7629 37.1507C55.7629 37.3699 55.8057 37.5596 55.8912 37.72C55.982 37.8803 56.0996 38.0166 56.2439 38.1288C56.3936 38.2357 56.5593 38.3159 56.741 38.3694C56.9281 38.4228 57.1178 38.4495 57.3102 38.4495C57.679 38.4495 57.9837 38.3774 58.2242 38.2331C58.47 38.0888 58.6651 37.9231 58.8094 37.736V38.3613H59.4027V35.8279C59.4027 35.2774 59.2504 34.8632 58.9457 34.5852C58.6411 34.302 58.2055 34.1603 57.6389 34.1603C57.3343 34.1603 57.0644 34.1924 56.8292 34.2565C56.594 34.3153 56.3615 34.3982 56.1317 34.5051L56.3161 35.0102C56.5085 34.9193 56.7036 34.8471 56.9013 34.7937C57.1045 34.7349 57.3289 34.7055 57.5748 34.7055ZM57.5988 36.2608C57.8554 36.2608 58.0825 36.2795 58.2803 36.317C58.4834 36.3544 58.6625 36.3945 58.8175 36.4372V36.8381C58.8175 37.0038 58.78 37.1561 58.7052 37.2951C58.6357 37.4287 58.5369 37.5463 58.4086 37.6478C58.2857 37.744 58.1387 37.8215 57.9676 37.8803C57.8019 37.9338 57.6229 37.9605 57.4305 37.9605C57.2915 37.9605 57.1579 37.9418 57.0296 37.9044C56.9067 37.8669 56.7971 37.8135 56.7009 37.744C56.6047 37.6692 56.5272 37.581 56.4684 37.4794C56.415 37.3779 56.3882 37.2603 56.3882 37.1267C56.3882 36.8595 56.4925 36.6483 56.7009 36.4933C56.9094 36.3383 57.2087 36.2608 57.5988 36.2608Z" fill="#9D7E6C"/>
<path d="M65.3443 36.5895C65.3443 36.782 65.3122 36.9583 65.2481 37.1187C65.1839 37.279 65.0957 37.418 64.9835 37.5356C64.8766 37.6478 64.7456 37.736 64.5906 37.8001C64.441 37.8589 64.278 37.8883 64.1016 37.8883C63.7328 37.8883 63.4495 37.7761 63.2518 37.5516C63.054 37.3271 62.9551 37.0225 62.9551 36.6376V34.2165H62.3378V36.79C62.3378 37.0358 62.3726 37.2603 62.442 37.4634C62.5169 37.6665 62.6211 37.8429 62.7547 37.9925C62.8937 38.1369 63.0594 38.2491 63.2518 38.3293C63.4495 38.4094 63.674 38.4495 63.9252 38.4495C64.2833 38.4495 64.5746 38.372 64.7991 38.217C65.0236 38.0567 65.2053 37.8643 65.3443 37.6398V38.3613H65.9536V34.2165H65.3443V36.5895Z" fill="#9D7E6C"/>
<path d="M69.8596 34.7616H71.1745V34.2165H69.8596V32.9658H69.2423V34.2165H68.6651V34.7616H69.2423V37.263C69.2423 37.4714 69.2717 37.6505 69.3305 37.8001C69.3893 37.9498 69.4695 38.0727 69.571 38.1689C69.6779 38.2598 69.8035 38.3266 69.9478 38.3694C70.0921 38.4121 70.2471 38.4335 70.4128 38.4335C70.5625 38.4335 70.6961 38.4175 70.8137 38.3854C70.9366 38.3587 71.0515 38.3159 71.1584 38.2571V37.728C71.0515 37.7814 70.95 37.8188 70.8538 37.8402C70.7629 37.8616 70.664 37.8723 70.5571 37.8723C70.3487 37.8723 70.1803 37.8215 70.052 37.72C69.9238 37.6184 69.8596 37.4394 69.8596 37.1828V34.7616Z" fill="#9D7E6C"/>
<path d="M77.7108 34.2165H77.0534L75.7226 37.6719L74.2154 34.2165H73.5339L75.4179 38.3453C75.295 38.6393 75.1694 38.8424 75.0411 38.9546C74.9128 39.0669 74.7552 39.123 74.5681 39.123C74.4345 39.123 74.3169 39.1096 74.2154 39.0829C74.1191 39.0615 74.0203 39.0241 73.9187 38.9706L73.7103 39.4597C73.8492 39.5292 73.9882 39.58 74.1272 39.612C74.2661 39.6494 74.4211 39.6681 74.5922 39.6681C74.9022 39.6681 75.1641 39.58 75.3778 39.4036C75.597 39.2272 75.7947 38.9252 75.9711 38.4976L77.7108 34.2165Z" fill="#9D7E6C"/>
</svg>
